# xmcd CD database file
#
# Track frame offsets:
#	150
#	16426
#	29492
#	45429
#	55202
#	74858
#	75397
#	91642
#	102404
#	119252
#	125323
#	135435
#	149136
#	170796
#	184158
#	196643
#
# Disc length: 2871 seconds
#
# Revision: 1
# Processed by: cddbd v1.5.2PL0 Copyright (c) Steve Scherf et al.
# Submitted via: CDex 1.51
#
DISCID=df0b3510
DTITLE=John Gorka - So dark you see
DYEAR=2009
DGENRE=Singer/Songwriter
TTITLE0=A Fond Kiss
TTITLE1=Whole Wide World
TTITLE2=Can't get over it
TTITLE3=Fret One
TTITLE4=Ignorance and Privilege
TTITLE5=Utah
TTITLE6=Think of You
TTITLE7=Where no Monuments stand
TTITLE8=Night into Day
TTITLE9=Fret Not
TTITLE10=Live by the Sword
TTITLE11=Trouble in Mind
TTITLE12=The Dutchman
TTITLE13=Mr. Chambers
TTITLE14=That was the Year
TTITLE15=Diminishing Winds
EXTD=YEAR: 2009
EXTT0=
EXTT1=
EXTT2=
EXTT3=
EXTT4=
EXTT5=
EXTT6=
EXTT7=
EXTT8=
EXTT9=
EXTT10=
EXTT11=
EXTT12=
EXTT13=
EXTT14=
EXTT15=
PLAYORDER=
